C:\Users\u0150099\OneDrive - KU Leuven\Resultaten_KinderUniversiteit\team_Lars\Leo_v7.mot
version=1
nRows=6
nColumns=35
inDegrees=yes
endheader
                time	         pelvis_tilt	           pelvis_tx	           pelvis_ty	       hip_flexion_r	        knee_angle_r	       ankle_angle_r	         mtp_angle_r	       hip_flexion_l	        knee_angle_l	       ankle_angle_l	         mtp_angle_l	    lumbar_extension	          arm_flex_r	          arm_flex_l	        elbow_flex_r	        elbow_flex_l	hamstrings_r/activation	bifemsh_r/activation	glut_max_r/activation	iliopsoas_r/activation	rect_fem_r/activation	  vasti_r/activation	gastroc_r/activation	 soleus_r/activation	tib_ant_r/activation	hamstrings_l/activation	bifemsh_l/activation	glut_max_l/activation	iliopsoas_l/activation	rect_fem_l/activation	  vasti_l/activation	gastroc_l/activation	 soleus_l/activation	tib_ant_l/activation	
          0.54541486	         -9.99001123	          0.72540176	          0.93571939	         -5.55712027	        -11.04904339	          6.79846947	         17.17089504	         36.33256447	         -4.47407367	          3.10033172	          0.21658139	         -0.49207014	        -20.16631011	        -19.91297593	         82.82749208	         82.76071592	          0.05000000	          0.21689228	          0.05000000	          0.63634076	          0.05000001	          0.05000000	          0.59455907	          0.54580131	          0.05000000	          0.36187354	          0.05000000	          0.06318808	          0.05000000	          0.08252907	          0.12672416	          0.07188216	          0.06727365	          0.38499390	
          0.55632315	        -10.18112267	          0.74366900	          0.93392009	         -5.24659019	        -13.22750053	          5.93826992	         18.56987128	         35.16040932	         -3.40849568	          2.26385346	          0.26327358	          0.07723171	        -21.20213601	        -20.94336897	         84.31229831	         84.24650404	          0.05000000	          0.18352629	          0.07623083	          0.57176557	          0.05000000	          0.05000002	          0.58005645	          0.52278683	          0.05000000	          0.31776806	          0.05000000	          0.08731350	          0.05000000	          0.06983308	          0.10722934	          0.07439476	          0.06983313	          0.41254460	
          0.56723145	        -10.35930870	          0.76218784	          0.93237271	         -4.70071171	        -15.82612223	          4.77434637	         19.99602087	         33.91589079	         -2.79788224	          1.29961136	          0.21837478	          0.67592689	        -22.15857096	        -21.89576274	         85.39508410	         85.33088984	          0.07098338	          0.15529322	          0.10769557	          0.48380705	          0.05000000	          0.05000000	          0.53154634	          0.46129362	          0.05000000	          0.27965856	          0.05000000	          0.11519853	          0.05000000	          0.05909020	          0.09073354	          0.06295012	          0.05909024	          0.54558073	
          0.57813975	        -10.52473163	          0.78067919	          0.93129492	         -3.88768943	        -18.83683439	          3.17680795	         21.38445806	         32.59696853	         -2.06439941	          0.20737692	          0.21804843	          1.27159701	        -22.97912646	        -22.71380289	         86.03118265	         85.96909118	          0.08771114	          0.13140342	          0.09112804	          0.40937978	          0.05000000	          0.05000000	          0.44977502	          0.39032974	          0.05000000	          0.24141185	          0.05013531	          0.15847027	          0.05000000	          0.05000000	          0.07677539	          0.05326608	          0.05000000	          0.68530693	
          0.58904805	        -10.67734339	          0.79883839	          0.93084785	         -2.76811324	        -22.25651763	          1.03174445	         22.62926841	         31.29546240	         -1.33021359	         -0.91332484	          0.17762094	          1.82855750	        -23.61173185	        -23.34549517	         86.20199846	         86.14237577	          0.09546904	          0.11118876	          0.07710921	          0.34640215	          0.05000000	          0.05000000	          0.38058312	          0.33028271	          0.05000000	          0.21138720	          0.05000000	          0.18830422	          0.05000000	          0.05000001	          0.06496454	          0.05000001	          0.05000000	          0.79547458	
          0.59995634	        -10.81500834	          0.81644652	          0.93107935	         -1.34134154	        -26.01828331	         -1.75245713	         23.59374995	         30.08309438	         -0.78331448	         -1.58605537	          0.14430915	          2.31908551	        -24.02805417	        -23.76249860	         85.92324508	         85.86633328	          0.08563493	          0.13550533	          0.06524698	          0.29311280	          0.05000000	          0.05000000	          0.32203548	          0.27947311	          0.05000000	          0.18538030	          0.05000000	          0.20836319	          0.05000000	          0.05000001	          0.05560636	          0.05000000	          0.05000000	          0.88158692	
